<?xml version="1.0" encoding="UTF-8" standalone="no"?>
<svg
   xmlns:dc="http://purl.org/dc/elements/1.1/"
   xmlns:cc="http://creativecommons.org/ns#"
   xmlns:rdf="http://www.w3.org/1999/02/22-rdf-syntax-ns#"
   xmlns:svg="http://www.w3.org/2000/svg"
   xmlns="http://www.w3.org/2000/svg"
   version="1.1"
   id="svg4168"
   viewBox="0 0 400 250.00001"
   height="250"
   width="400">
  <defs
     id="defs4170" />
  <metadata
     id="metadata4173">
    <rdf:RDF>
      <cc:Work
         rdf:about="">
        <dc:format>image/svg+xml</dc:format>
        <dc:type
           rdf:resource="http://purl.org/dc/dcmitype/StillImage" />
        <dc:title></dc:title>
      </cc:Work>
    </rdf:RDF>
  </metadata>
  <g
     transform="translate(0,-802.36216)"
     id="layer1">
    <g
       style="opacity:0.3"
       transform="matrix(1.8775438,0,0,1.8775438,-509.93949,-1156.2728)"
       id="g5032">
      <path
         d="m 412.3763,1140.6309 c -2.63067,0 -4.76534,-2.3692 -4.76534,-5.2802 l 9.52801,0 c 0,2.911 -2.13467,5.2802 -4.76267,5.2802 z m 0,-14.9135 c 0,0 -5.73334,5.9015 -5.73334,9.4948 0,3.5864 2.56667,6.4973 5.73334,6.4973 3.16933,0 5.73467,-2.9109 5.73467,-6.4973 0,-3.5933 -5.73467,-9.4948 -5.73467,-9.4948"
         style="fill:#ffffff;fill-opacity:1;fill-rule:nonzero;stroke:none"
         id="path24" />
      <path
         d="m 405.0043,1153.2685 c -1.54,0 -2.78534,-1.3819 -2.78534,-3.0871 l 5.572,0 c 0,1.7052 -1.248,3.0871 -2.78666,3.0871 z m 0,-8.7256 c 0,0 -3.356,3.4546 -3.356,5.5505 0,2.1027 1.50266,3.8041 3.356,3.8041 1.85333,0 3.352,-1.7014 3.352,-3.8041 0,-2.0959 -3.352,-5.5505 -3.352,-5.5505"
         style="fill:#ffffff;fill-opacity:1;fill-rule:nonzero;stroke:none"
         id="path26" />
      <path
         d="m 375.38963,1132.5351 c -2.31067,0 -4.18267,1.8719 -4.18267,4.1812 l 8.36267,0 c 0,-2.3093 -1.872,-4.1812 -4.18,-4.1812"
         style="fill:#ffffff;fill-opacity:1;fill-rule:nonzero;stroke:none"
         id="path28" />
      <path
         d="m 352.7803,1187.3882 c -3.564,5.2719 -10.75334,6.6625 -16.02534,3.1 -5.27467,-3.5625 -6.66533,-10.7505 -3.10267,-16.0255 l 43.18001,-64.1852 19.12666,12.9211 z m 50.54933,-65.6921 -27.93333,-18.8692 c -1.22934,-0.832 -2.89867,-0.5067 -3.728,0.7213 -0.83067,1.228 -0.508,2.8973 0.72133,3.7253 l 0.884,0.5987 -43.18,64.1895 c -4.89067,7.2333 -2.98,17.0984 4.256,21.9864 7.23466,4.888 17.10267,2.9786 21.98933,-4.2572 l 43.18,-64.1839 0.80267,0.5411 c 1.228,0.8292 2.89733,0.5041 3.728,-0.7224 0.82933,-1.2307 0.508,-2.8974 -0.72,-3.7296"
         style="fill:#ffffff;fill-opacity:1;fill-rule:nonzero;stroke:none"
         id="path30" />
      <path
         d="m 370.1923,1151.6855 c -0.888,0 -1.608,-0.7202 -1.608,-1.6082 0,-0.8864 0.72,-1.6052 1.608,-1.6052 0.88933,0 1.60933,0.7188 1.60933,1.6052 0,0.888 -0.72,1.6082 -1.60933,1.6082 z m -3.19867,-5.9109 c -1.23067,0 -2.228,-1 -2.228,-2.2301 0,-1.2308 0.99733,-2.2256 2.228,-2.2256 1.22933,0 2.22533,0.9948 2.22533,2.2256 0,1.2301 -0.996,2.2301 -2.22533,2.2301 z m 12.576,-9.0583 c 0,2.3079 -1.872,4.1812 -4.18,4.1812 -2.31067,0 -4.18267,-1.8733 -4.18267,-4.1812 l -9.248,0 -26.016,38.764 c -2.79867,4.1464 -1.70533,9.7943 2.44,12.5986 4.148,2.8 9.79733,1.7077 12.59867,-2.4376 l 33.08933,-48.925 -4.50133,0"
         style="fill:#ffffff;fill-opacity:1;fill-rule:nonzero;stroke:none"
         id="path32" />
    </g>
    <g
       style="opacity:0.3"
       transform="matrix(1.6491861,0,0,1.6491861,-600.95439,-698.67483)"
       id="g5039">
      <path
         d="m 538.8843,942.47618 c 8.456,-11.79866 23.54401,-17.15466 37.54267,-13.324 l 3.38134,0.92534 2.04533,-2.84934 18.74,-27.02133 14.33733,10.276 -18.73866,27.02133 -2.04267,2.85334 1.96533,2.90533 c 8.12267,12.02534 7.896,28.03334 -0.55866,39.832 -7.75467,10.82 -21.06,16.264 -34.14934,14.06134 l -24.86933,-17.82534 c -6.28934,-11.68933 -5.40667,-26.03733 2.34666,-36.85467 z m -3.16933,-2.832 c -9.23333,12.88267 -9.50267,29.46267 -2.05867,42.34801 l 26.15467,18.74531 c 14.59467,2.9134 30.20934,-2.66931 39.44,-15.54931 9.79734,-13.668 9.51867,-31.50134 0.628,-44.66001 l 18.96934,-27.34533 c 1.18667,0.55067 2.63467,0.20667 3.42533,-0.89467 0.89467,-1.24666 0.608,-2.984 -0.63866,-3.88 l -21.23334,-15.21733 c -1.24933,-0.89467 -2.984,-0.608 -3.87867,0.63867 -0.78666,1.104 -0.652,2.588 0.25734,3.532 l -18.97467,27.34666 c -15.31733,-4.19066 -32.29334,1.27334 -42.09067,14.936"
         style="fill:#ffffff;fill-opacity:1;fill-rule:nonzero;stroke:none"
         id="path52" />
      <path
         d="m 571.12697,955.82952 c 0.003,-0.0173 0.007,-0.0347 0.007,-0.052 0,-4.096 -3.32267,-7.42 -7.41733,-7.42 -4.09467,0 -7.41734,3.324 -7.41734,7.42 0,0.0173 0.004,0.0347 0.007,0.052 z m -22.20133,8.852 c 0,-2.08 1.688,-3.76533 3.768,-3.76533 2.08267,0 3.76667,1.68533 3.76667,3.76533 0,2.08 -1.684,3.76533 -3.76667,3.76533 -2.08,0 -3.768,-1.68533 -3.768,-3.76533 z m 9.13867,8.20133 c 0,-1.564 1.26666,-2.82933 2.828,-2.82933 1.56266,0 2.828,1.26533 2.828,2.82933 0,1.56 -1.26534,2.82667 -2.828,2.82667 -1.56134,0 -2.828,-1.26667 -2.828,-2.82667 z m -23.55734,-9.56666 c 0,4.636 0.968,9.04266 2.70533,13.036 l 27.39867,19.64133 c 0.89334,0.076 1.79334,0.136 2.70534,0.136 18.12,0 32.812,-14.68933 32.812,-32.81333 0,-2.58 -0.328,-5.07867 -0.892,-7.48667 l -28.10934,0 c -0.0293,4.072 -3.332,7.364 -7.41066,7.364 -4.08,0 -7.384,-3.292 -7.41067,-7.364 l -20.91067,0 c -0.56267,2.408 -0.888,4.90667 -0.888,7.48667"
         style="fill:#ffffff;fill-opacity:1;fill-rule:nonzero;stroke:none"
         id="path54" />
    </g>
    <g
       style="opacity:0.3"
       transform="matrix(1.795928,0,0,1.795928,-250.3824,-815.4274)"
       id="g5043">
      <path
         d="m 132.19802,994.47885 c 1.9572,-0.51333 3.12386,-2.50933 2.614,-4.46133 l 0,0 c -1.36254,-5.208 -2.02654,-9.832 -2.02347,-13.87733 l 0,0 c 0.0771,-9.00667 2.988,-15.03067 9.39013,-19.94267 l 0,0 c 6.43907,-4.88533 16.89014,-8.32267 31.50894,-10.08267 l 0,0 c 18.77547,-2.21733 29.42867,-11.03867 34.786,-20.076 l 0,0 c 5.39733,-9.01733 5.828,-17.892 5.84267,-20.908 l 0,0 c 0,-0.64533 -0.0253,-1.03333 -0.0307,-1.10533 l -0.001,0 c -0.132,-2.01334 -1.872,-3.54 -3.888,-3.404 l 0,0 c -2.01334,0.13466 -3.54,1.87733 -3.404,3.892 l 0,0 c 0,0 0,0 0.005,0.10533 l 0,0 c 0.001,0.104 0.007,0.27733 0.007,0.512 l 0,0 c 0.012,2.25333 -0.40534,9.884 -4.79334,17.14133 l 0,0 c -4.42133,7.23467 -12.47546,14.45867 -29.4036,16.584 l 0,0 c -15.27293,1.87734 -26.88173,5.40134 -35.02867,11.49867 l 0,0 c -8.17973,6.072 -12.38173,15.05867 -12.30213,25.78534 l 0,0 c 0.005,4.84 0.7824,10.06133 2.262,15.72533 l 0,0 c 0.42973,1.64267 1.91147,2.73333 3.5344,2.73333 l 0,0 c 0.30573,0 0.61933,-0.04 0.92507,-0.12 l 0,0"
         style="fill:#ffffff;fill-opacity:1;fill-rule:nonzero;stroke:none"
         id="path64" />
      <path
         d="m 178.97095,1005.3069 c 6.19574,-7.30805 9.82907,-15.46005 9.81347,-24.37738 l 0,0 c -0.0359,-12.79067 -7.16453,-26.24267 -21.7688,-41.65067 l 0,0 c -8.95093,-9.46933 -11.61347,-19.052 -11.64107,-27.36533 l 0,0 c -0.0235,-8.29467 2.86614,-15.37867 5.06347,-18.696 l 0,0.003 c 1.10893,-1.68933 0.63493,-3.956 -1.0552,-5.06133 l 0,0 c -1.6828,-1.108 -3.95147,-0.636 -5.0604,1.05067 l 0,0 c -2.9984,4.62 -6.2296,12.72666 -6.2568,22.704 l 0,0 c -0.0265,9.92666 3.40947,21.64533 13.6496,32.39733 l 0,0 c 14.04733,14.78 19.8004,26.76934 19.76133,36.61867 l 0,0 c -0.0135,6.91067 -2.67706,13.21867 -8.0932,19.66264 l 0,0 c -1.3,1.5453 -1.10306,3.8493 0.43707,5.152 l 0,0 c 0.68853,0.5773 1.52333,0.8573 2.35613,0.8573 l 0,0 c 1.03907,0 2.07294,-0.4386 2.7944,-1.2946 l 0,0"
         style="fill:#ffffff;fill-opacity:1;fill-rule:nonzero;stroke:none"
         id="path66" />
      <path
         d="m 169.37509,901.34018 c -0.6448,1.372 -0.0527,3.00667 1.32133,3.648 l 19.88387,9.30534 c 1.3692,0.644 3.00306,0.052 3.6484,-1.32134 l 0,0 c 0.64226,-1.37466 0.05,-3.00666 -1.3224,-3.648 l -19.88174,-9.308 c -1.374,-0.64133 -3.0068,-0.0493 -3.64946,1.324 l 0,0"
         style="fill:#ffffff;fill-opacity:1;fill-rule:nonzero;stroke:none"
         id="path68" />
      <path
         d="m 163.18135,921.42952 c -0.6448,1.37066 -0.0511,3.00666 1.32027,3.64933 l 14.62027,6.84 c 1.36986,0.64267 3.00573,0.0547 3.64906,-1.31867 l 0,0 c 0.64427,-1.37466 0.0457,-3.00666 -1.32093,-3.65066 l -14.62293,-6.84134 c -1.37187,-0.64133 -3.0072,-0.0507 -3.64574,1.32134 l 0,0"
         style="fill:#ffffff;fill-opacity:1;fill-rule:nonzero;stroke:none"
         id="path70" />
      <path
         d="m 161.45215,909.12685 c -0.64013,1.37067 -0.05,3.00667 1.32347,3.648 l 26.89893,12.59067 c 1.37187,0.644 3.0068,0.0493 3.65254,-1.32534 l 0,0 c 0.63813,-1.37066 0.0459,-3.004 -1.3276,-3.64666 l -26.89894,-12.58934 c -1.37026,-0.644 -3.00466,-0.048 -3.6484,1.32267 l 0,0"
         style="fill:#ffffff;fill-opacity:1;fill-rule:nonzero;stroke:none"
         id="path72" />
      <path
         d="m 141.34282,977.31885 c 0.5948,-1.39333 2.20573,-2.04 3.60253,-1.44533 l 20.1844,8.632 c 1.39374,0.596 2.03854,2.208 1.4432,3.60267 l 0,0 c -0.5948,1.39466 -2.21146,2.03866 -3.60106,1.44266 l -20.18334,-8.62933 c -1.39373,-0.59733 -2.0416,-2.20933 -1.44573,-3.60267 l 0,0"
         style="fill:#ffffff;fill-opacity:1;fill-rule:nonzero;stroke:none"
         id="path74" />
      <path
         d="m 152.20109,959.31885 c 0.59226,-1.396 2.20626,-2.04133 3.6032,-1.44533 l 14.83853,6.344 c 1.3948,0.596 2.04373,2.20933 1.44573,3.60267 l 0,0 c -0.59626,1.39466 -2.21093,2.04 -3.60466,1.444 l -14.84014,-6.344 c -1.39373,-0.59734 -2.03946,-2.208 -1.44266,-3.60134 l 0,0"
         style="fill:#ffffff;fill-opacity:1;fill-rule:nonzero;stroke:none"
         id="path76" />
      <path
         d="m 141.87402,966.22285 c 0.59373,-1.392 2.20626,-2.04 3.60213,-1.44533 l 27.30934,11.67733 c 1.3916,0.596 2.03746,2.20934 1.44266,3.604 l 0,0 c -0.59626,1.392 -2.21253,2.04 -3.6036,1.444 l -27.30573,-11.67733 c -1.39534,-0.59333 -2.03907,-2.20933 -1.4448,-3.60267 l 0,0"
         style="fill:#ffffff;fill-opacity:1;fill-rule:nonzero;stroke:none"
         id="path78" />
    </g>
  </g>
</svg>
